<svg xmlns="http://www.w3.org/2000/svg" viewBox="0 0 400 400" width="100%" height="100%">
  <defs>
    <style>
      .logo-color {
        stroke: #1B75BC;
        fill: none;
        stroke-width: 3.5;
        stroke-linecap: round;
        stroke-linejoin: round;
      }
      .logo-fill {
        fill: #1B75BC;
      }
      .logo-bg {
        fill: #ffffff;
      }
      .logo-text {
        font-family: 'Montserrat', 'Inter', system-ui, sans-serif;
        font-size: 52px;
        font-weight: 700;
        fill: #1B75BC;
        letter-spacing: 4px;
      }
    </style>
  </defs>

  <!-- Outer Circle -->
  <circle cx="200" cy="200" r="185" class="logo-color" stroke-width="3" />

  <!-- Text -->
  <text x="204" y="273" class="logo-text" text-anchor="middle">SIMLAB</text>

  <!-- ICON START -->
  <g class="logo-color">
    <!-- Top Petal (Chevron) -->
    <path d="M 185 117 L 200 90 L 215 117" />
    
    <!-- Top-Side Nodes and Stalks -->
    <circle cx="155" cy="120" r="4" class="logo-bg" />
    <path d="M 155 120 L 175 145 L 185 160" />
    
    <circle cx="245" cy="120" r="4" class="logo-bg" />
    <path d="M 245 120 L 225 145 L 215 160" />

    <!-- Outer Sweeping Petals (Lotus Base Cup) -->
    <!-- Starts left, curves down to meet at bottom center under triangle, goes right -->
    <path d="M 115 155 C 145 205 160 215 200 215 C 240 215 255 205 285 155" />

    <!-- Inner Petal Partial Lines (Connecting from outer petals into the bottom vertices of the triangle) -->
    <path d="M 135 170 C 160 185 165 190 170 190" />
    <path d="M 265 170 C 240 185 235 190 230 190" />

    <!-- Bottom Circuit Curve (Smiley curve with nodes under the cup) -->
    <circle cx="160" cy="230" r="4" class="logo-bg" />
    <circle cx="240" cy="230" r="4" class="logo-bg" />
    <path d="M 160 230 Q 200 240 240 230" />

    <!-- Very Bottom Chevrons -->
    <path d="M 175 245 L 200 253 L 225 245" />
    <path d="M 185 255 L 200 261 L 215 255" />

    <!-- Central Triangle -->
    <polygon points="200,140 170,190 230,190" />
    <polygon points="200,160 185,180 215,180" />
    <!-- Connecting lines from inner triangle to outer triangle -->
    <line x1="200" y1="140" x2="200" y2="160" />
    <line x1="170" y1="190" x2="185" y2="180" />
    <line x1="230" y1="190" x2="215" y2="180" />

    <!-- Nodes on outer triangle -->
    <circle cx="200" cy="140" r="4" class="logo-bg" />
    <circle cx="170" cy="190" r="4" class="logo-bg" />
    <circle cx="230" cy="190" r="4" class="logo-bg" />
  </g>
</svg>
